# xmcd
#
# Track frame offsets:
#	150
#	14234
#	29009
#	43962
#	58131
#	74589
#	88218
#	102845
#	116492
#	128396
#	141687
#	158195
#	173660
#	186347
#	201948
#	219705
#
# Disc length: 3159 seconds
#
# Revision: 0
# Processed by: cddbd v1.5.2PL0 Copyright (c) Steve Scherf et al.
# Submitted via: dBpowerAMP V4.0
#
DISCID=010c5510
DTITLE=Luiz Cláudio and Giuliano - Na Balada - Ao vivo
DYEAR=1900
DGENRE=Sertanejo
TTITLE0=EU QUERO VER
TTITLE1=VOCê NÃO SOUBE ME AMAR
TTITLE2=BOTECO DE MARIA
TTITLE3=SEU JARDINEIRO
TTITLE4=DO MEIO DIA A MEIA NOITE
TTITLE5=ME LEVA MAIS A SERIO
TTITLE6=LARA
TTITLE7=SEMPRE DO SEU LADO
TTITLE8=PÁRA DE CHORAR
TTITLE9=É DE CORAÇÃO
TTITLE10=DARIA (LA QUINTA ESTACION)
TTITLE11=ESTRELAS BRILHAM PRA NÓS DOIS
TTITLE12=ESPUMA DA CERVEJA
TTITLE13=SEMPRE QUE TEU CORAÇÃO ME CHAMA
TTITLE14=CORAÇÃO NAVEGADOR
TTITLE15=MENTES TÃO BEM
EXTD=NA BALADA - AO VIVO
EXTT0=
EXTT1=
EXTT2=
EXTT3=
EXTT4=
EXTT5=
EXTT6=
EXTT7=
EXTT8=
EXTT9=
EXTT10=
EXTT11=
EXTT12=
EXTT13=
EXTT14=
EXTT15=
PLAYORDER=
